<svg xmlns="http://www.w3.org/2000/svg" width="154.61" height="47.5" viewBox="0 0 154.61 47.5">
  <g id="white-logo" transform="translate(-83.68 -222.94)">
    <path id="Path_59650" data-name="Path 59650" d="M89.81,249.67a3.66,3.66,0,0,0-2.42.84v-.15c-3,0-3.71.8-3.71,3.66v4.89h2.17V254c0-2,.39-2.79,1.12-3.06a3.83,3.83,0,0,0-.79,2.41,3.63,3.63,0,1,0,3.63-3.7Zm0,6.72c-1.06,0-1.59-1.28-1.59-3s.53-3,1.59-3,1.58,1.29,1.58,3-.52,3-1.58,3Z" fill="#fff"/>
    <path id="Path_59651" data-name="Path 59651" d="M105.74,252H104.4a1.08,1.08,0,0,1-1.21-1.09c0-.65.49-1.21,1.66-1.21h2.25a1.6,1.6,0,0,0,1.6-1.72c0-.59-.25-.67-.41-.67-.14.28-.73.67-1.88.67-.39,0-1-.05-1.48-.05-2.81,0-3.92,1.19-3.92,3a2.58,2.58,0,0,0,2.77,2.84h1.79c.94,0,1.32.45,1.32,1.15s-.31,1.16-1,1.16h-5.25a5.44,5.44,0,0,0,.2-1.47,3.278,3.278,0,0,0,0-.34,3.77,3.77,0,0,0,.08-.83,3.63,3.63,0,1,0-3.62,3.7,4.461,4.461,0,0,0,1.06-.13,2.06,2.06,0,0,1-1.85,1.3A3,3,0,0,1,94,256.8l-.55.41a3.72,3.72,0,0,0,3.36,1.87A3.86,3.86,0,0,0,100.3,257a1.79,1.79,0,0,0,1.53.85h4.81c1.61,0,2.43-1.15,2.43-2.88C109.07,253,108.07,252,105.74,252Zm-8.43,4.47c-1.06,0-1.59-1.28-1.59-3s.53-3,1.59-3,1.58,1.29,1.58,3-.52,2.96-1.58,2.96Z" fill="#fff"/>
    <circle id="Ellipse_1025" data-name="Ellipse 1025" cx="1.9" cy="1.9" r="1.9" transform="translate(110.2 254.14)" fill="#fff"/>
    <circle id="Ellipse_1026" data-name="Ellipse 1026" cx="3.04" cy="3.04" r="3.04" transform="translate(124.36 263.723) rotate(-9.22)" fill="#fff"/>
    <circle id="Ellipse_1027" data-name="Ellipse 1027" cx="3.04" cy="3.04" r="3.04" transform="translate(132.26 263.2)" fill="#fff"/>
    <path id="Path_59652" data-name="Path 59652" d="M177.18,238c-3.47,0-4.46,1.54-4.46,6.45v8.27c0,5.1-1.49,6.84-4.21,6.84a5,5,0,0,1-4-2.5,12.88,12.88,0,0,0,.66-4.39v-8.22c0-3,.49-5,3.46-5h.5V238h-6c-3.46,0-4.46,1.54-4.46,6.45v8.27c0,5.1-1.48,6.84-4.21,6.84a4.93,4.93,0,0,1-4-2.5,13.149,13.149,0,0,0,.65-4.39v-8.22c0-3,.5-5,3.47-5h.5V238h-5.95c-3.47,0-4.46,1.54-4.46,6.45v8.27c0,5.1-1.49,6.84-4.21,6.84a5,5,0,0,1-4-2.5,12.88,12.88,0,0,0,.66-4.39v-8.22c0-3,.5-5,3.47-5H141V238h-6.37c-3.47,0-4.46,1.54-4.46,6.45v8.27c0,4.92-1.38,6.71-3.92,6.83a4.38,4.38,0,0,1-2.87-1.25V229.71H117V258.3a27,27,0,0,1-.3,4.4c-.84,3.08-2.63,4.34-4.92,4.34-3.42,0-5.35-1.78-7.08-4.11l-1.54,1.14a10.36,10.36,0,0,0,9.36,5.2,4.889,4.889,0,0,0,1-.09c7.14-.17,9.47-2.2,9.89-8.44a8.19,8.19,0,0,0,4.14,1.09h.42c3.66,0,6.19-.95,7.65-3v.31h.24a8.28,8.28,0,0,0,6.2,2.73c3.65,0,6.18-.95,7.65-3l-.06.31h.25a8.26,8.26,0,0,0,6.19,2.73c3.65,0,6.19-.95,7.65-3l-.06.31h.25a8.28,8.28,0,0,0,6.19,2.73c6.2,0,9.17-2.73,9.17-9.12v-8.22c0-3,.49-5,3.47-5h.49V238Z" fill="#fff"/>
    <path id="Path_59653" data-name="Path 59653" d="M202.72,222.94v31.9a6.8,6.8,0,0,1-1,3.74c-1.51,2.31-4,3.74-8,3.84a5.694,5.694,0,0,1-1,.09,10.36,10.36,0,0,1-9.36-5.21l1.54-1.14c1.74,2.33,3.67,4.11,7.08,4.11,2.3,0,4.08-1.26,4.92-4.34a25.73,25.73,0,0,0,.31-4.4V222.94Z" fill="#fff"/>
    <path id="Path_59654" data-name="Path 59654" d="M204.75,259.47l.09.16.1.15a8.28,8.28,0,0,0,6.19,2.73c3.65,0,6.19-.95,7.65-3h0a9.407,9.407,0,0,0,6.38,3c6.2,0,9.17-2.73,9.17-9.12v-8.22c0-3,.5-5,3.47-5h.49v-1.49h-5.94c-3.47,0-4.46,1.54-4.46,6.45v8.27c0,5.1-1.49,6.84-4.21,6.84a5,5,0,0,1-4-2.5,12.88,12.88,0,0,0,.66-4.39v-8.22c0-3,.49-5,3.47-5h.49v-1.49h-5.95c-3.46,0-4.45,1.54-4.45,6.45v8.27c0,5.1-1.49,6.84-4.22,6.84a4.93,4.93,0,0,1-4-2.5m0,0" fill="#fff"/>
    <circle id="Ellipse_1028" data-name="Ellipse 1028" cx="3.04" cy="3.04" r="3.04" transform="translate(225.69 264.36)" fill="#fff"/>
  </g>
</svg>
